<svg xmlns="http://www.w3.org/2000/symbol" width="24" height="24" fill="none"
    stroke="currentColor" stroke-width="2" stroke-linecap="round" stroke-linejoin="round">

    <!-- Table of content        
        1. Core
        2. Common
        3. Dashboard
        4. Games
        5. Fields
        6. Help
        7. Settings
        8. Auth
        9. Utils
     -->

    <!-- 1. Core -->
    <symbol viewBox="0 0 24 24" id="logo">
        <path d="M4 4h10.4M20 9.6v10.4H4V4" />
        <text x="12" y="12" text-anchor="middle" dominant-baseline="central" fill="currentColor"
            font-size="9" font-family="sans-serif" font-weight="300">Г</text>
        <line x1="18.5" y1="4" x2="21.5" y2="4" />
        <line x1="20" y1="2.5" x2="20" y2="5.5" />
    </symbol>
    <symbol viewBox="0 0 24 24" id="menu">
        <path d="M4 12h16" />
        <path d="M4 18h16" />
        <path d="M4 6h16" />
    </symbol>
    <symbol viewBox="0 0 24 24" id="cancel">
        <path d="M18 6 6 18" />
        <path d="m6 6 12 12" />
    </symbol>
    <symbol viewBox="0 0 24 24" id="home">
        <path stroke-linecap="round" stroke-linejoin="round"
            d="m2.25 12 8.954-8.955c.44-.439 1.152-.439 1.591 0L21.75 12M4.5 9.75v10.125c0 .621.504 1.125 1.125 1.125H9.75v-4.875c0-.621.504-1.125 1.125-1.125h2.25c.621 0 1.125.504 1.125 1.125V21h4.125c.621 0 1.125-.504 1.125-1.125V9.75M8.25 21h8.25" />
    </symbol>


    <!-- 2. Common -->
    <symbol viewBox="0 0 24 24" id="search">
        <path d="m21 21-4.34-4.34" />
        <circle cx="11" cy="11" r="8" />
    </symbol>
    <symbol viewBox="0 0 24 24" id="plus">
        <path d="M5 12h14" />
        <path d="M12 5v14" />
    </symbol>
    <symbol viewBox="0 0 24 24" id="plus-circle">
        <circle cx="12" cy="12" r="10" />
        <path d="M8 12h8" />
        <path d="M12 8v8" />
    </symbol>
    <symbol viewBox="0 0 24 24" id="manage">
        <path d="M14 17H5" />
        <path d="M19 7h-9" />
        <circle cx="17" cy="17" r="3" />
        <circle cx="7" cy="7" r="3" />
    </symbol>

    <!-- 3. Dashboard -->
    <symbol viewBox="0 0 24 24" id="dashboard">
        <path stroke-linecap="round" stroke-linejoin="round"
            d="M3.75 6A2.25 2.25 0 0 1 6 3.75h2.25A2.25 2.25 0 0 1 10.5 6v2.25a2.25 2.25 0 0 1-2.25 2.25H6a2.25 2.25 0 0 1-2.25-2.25V6ZM3.75 15.75A2.25 2.25 0 0 1 6 13.5h2.25a2.25 2.25 0 0 1 2.25 2.25V18a2.25 2.25 0 0 1-2.25 2.25H6A2.25 2.25 0 0 1 3.75 18v-2.25ZM13.5 6a2.25 2.25 0 0 1 2.25-2.25H18A2.25 2.25 0 0 1 20.25 6v2.25A2.25 2.25 0 0 1 18 10.5h-2.25a2.25 2.25 0 0 1-2.25-2.25V6ZM13.5 15.75a2.25 2.25 0 0 1 2.25-2.25H18a2.25 2.25 0 0 1 2.25 2.25V18A2.25 2.25 0 0 1 18 20.25h-2.25A2.25 2.25 0 0 1 13.5 18v-2.25Z" />
    </symbol>
    <symbol viewBox="0 0 24 24" id="user">
        <circle cx="12" cy="8" r="5" />
        <path d="M20 21a8 8 0 0 0-16 0" />
    </symbol>
    <symbol viewBox="0 0 24 24" id="user-lock">
        <circle cx="10" cy="7" r="4" />
        <path d="M10.3 15H7a4 4 0 0 0-4 4v2" />
        <path d="M15 15.5V14a2 2 0 0 1 4 0v1.5" />
        <rect width="8" height="5" x="13" y="16" rx=".899" />
    </symbol>

    <!-- 4. Games -->
    <symbol viewBox="0 0 24 24" id="gamepad">
        <line x1="6" x2="10" y1="11" y2="11" />
        <line x1="8" x2="8" y1="9" y2="13" />
        <line x1="15" x2="15.01" y1="12" y2="12" />
        <line x1="18" x2="18.01" y1="10" y2="10" />
        <path
            d="M17.32 5H6.68a4 4 0 0 0-3.978 3.59c-.006.052-.01.101-.017.152C2.604 9.416 2 14.456 2 16a3 3 0 0 0 3 3c1 0 1.5-.5 2-1l1.414-1.414A2 2 0 0 1 9.828 16h4.344a2 2 0 0 1 1.414.586L17 18c.5.5 1 1 2 1a3 3 0 0 0 3-3c0-1.545-.604-6.584-.685-7.258-.007-.05-.011-.1-.017-.151A4 4 0 0 0 17.32 5z" />
    </symbol>
    <symbol viewBox="0 0 24 24" id="history">
        <path d="M3 12a9 9 0 1 0 9-9 9.75 9.75 0 0 0-6.74 2.74L3 8" />
        <path d="M3 3v5h5" />
        <path d="M12 7v5l4 2" />
    </symbol>
    <symbol viewBox="0 0 24 24" id="user-check">
        <path d="m16 11 2 2 4-4" />
        <path d="M16 21v-2a4 4 0 0 0-4-4H6a4 4 0 0 0-4 4v2" />
        <circle cx="9" cy="7" r="4" />
    </symbol>

    <!-- 5. Fields -->
    <symbol viewBox="0 0 24 24" id="field">
        <path d="m12 8 6-3-6-3v10" />
        <path
            d="m8 11.99-5.5 3.14a1 1 0 0 0 0 1.74l8.5 4.86a2 2 0 0 0 2 0l8.5-4.86a1 1 0 0 0 0-1.74L16 12" />
        <path d="m6.49 12.85 11.02 6.3" />
        <path d="M17.51 12.85 6.5 19.15" />
    </symbol>
    <symbol viewBox="0 0 24 24" id="all">
        <path d="m3 16 4 4 4-4" />
        <path d="M7 20V4" />
        <path d="M20 8h-5" />
        <path d="M15 10V6.5a2.5 2.5 0 0 1 5 0V10" />
        <path d="M15 14h5l-5 6h5" />
    </symbol>
    <symbol viewBox="0 0 24 24" id="local">
        <path
            d="M15 22a1 1 0 0 1-1-1v-4a1 1 0 0 1 .445-.832l3-2a1 1 0 0 1 1.11 0l3 2A1 1 0 0 1 22 17v4a1 1 0 0 1-1 1z" />
        <path d="M18 10a8 8 0 0 0-16 0c0 4.993 5.539 10.193 7.399 11.799a1 1 0 0 0 .601.2" />
        <path d="M18 22v-3" />
        <circle cx="10" cy="10" r="3" />
    </symbol>
    <symbol viewBox="0 0 24 24" id="heart">
        <path stroke-linecap="round" stroke-linejoin="round"
            d="M21 8.25c0-2.485-2.099-4.5-4.688-4.5-1.935 0-3.597 1.126-4.312 2.733-.715-1.607-2.377-2.733-4.313-2.733C5.1 3.75 3 5.765 3 8.25c0 7.22 9 12 9 12s9-4.78 9-12Z" />
    </symbol>


    <!-- 6. Help -->
    <symbol viewBox="0 0 24 24" id="help">
        <path stroke-linecap="round" stroke-linejoin="round"
            d="M9.879 7.519c1.171-1.025 3.071-1.025 4.242 0 1.172 1.025 1.172 2.687 0 3.712-.203.179-.43.326-.67.442-.745.361-1.45.999-1.45 1.827v.75M21 12a9 9 0 1 1-18 0 9 9 0 0 1 18 0Zm-9 5.25h.008v.008H12v-.008Z" />
    </symbol>
    <symbol viewBox="0 0 24 24" id="library">
        <path d="m16 6 4 14" />
        <path d="M12 6v14" />
        <path d="M8 8v12" />
        <path d="M4 4v16" />
    </symbol>
    <symbol viewBox="0 0 24 24" id="about">
        <path stroke-linecap="round" stroke-linejoin="round"
            d="M18 18.72a9.094 9.094 0 0 0 3.741-.479 3 3 0 0 0-4.682-2.72m.94 3.198.001.031c0 .225-.012.447-.037.666A11.944 11.944 0 0 1 12 21c-2.17 0-4.207-.576-5.963-1.584A6.062 6.062 0 0 1 6 18.719m12 0a5.971 5.971 0 0 0-.941-3.197m0 0A5.995 5.995 0 0 0 12 12.75a5.995 5.995 0 0 0-5.058 2.772m0 0a3 3 0 0 0-4.681 2.72 8.986 8.986 0 0 0 3.74.477m.94-3.197a5.971 5.971 0 0 0-.94 3.197M15 6.75a3 3 0 1 1-6 0 3 3 0 0 1 6 0Zm6 3a2.25 2.25 0 1 1-4.5 0 2.25 2.25 0 0 1 4.5 0Zm-13.5 0a2.25 2.25 0 1 1-4.5 0 2.25 2.25 0 0 1 4.5 0Z" />
    </symbol>
    <symbol viewBox="0 0 24 24" id="contact">
        <path d="M16 2v2" />
        <path d="M7 22v-2a2 2 0 0 1 2-2h6a2 2 0 0 1 2 2v2" />
        <path d="M8 2v2" />
        <circle cx="12" cy="11" r="3" />
        <rect x="3" y="4" width="18" height="18" rx="2" />
    </symbol>

    <!-- 7. Settings -->
    <symbol viewBox="0 0 24 24" id="settings">
        <path
            d="M9.671 4.136a2.34 2.34 0 0 1 4.659 0 2.34 2.34 0 0 0 3.319 1.915 2.34 2.34 0 0 1 2.33 4.033 2.34 2.34 0 0 0 0 3.831 2.34 2.34 0 0 1-2.33 4.033 2.34 2.34 0 0 0-3.319 1.915 2.34 2.34 0 0 1-4.659 0 2.34 2.34 0 0 0-3.32-1.915 2.34 2.34 0 0 1-2.33-4.033 2.34 2.34 0 0 0 0-3.831A2.34 2.34 0 0 1 6.35 6.051a2.34 2.34 0 0 0 3.319-1.915" />
        <circle cx="12" cy="12" r="3" />
    </symbol>
    <symbol viewBox="0 0 24 24" id="ellipsis">
        <circle cx="12" cy="12" r="1" />
        <circle cx="19" cy="12" r="1" />
        <circle cx="5" cy="12" r="1" />
    </symbol>
    <symbol viewBox="0 0 24 24" id="ellipsis-circle">
        <circle cx="12" cy="12" r="10" />
        <path d="M17 12h.01" />
        <path d="M12 12h.01" />
        <path d="M7 12h.01" />
    </symbol>
    <symbol viewBox="0 0 24 24" id="ellipsis-vertical">
        <circle cx="12" cy="12" r="1" />
        <circle cx="12" cy="5" r="1" />
        <circle cx="12" cy="19" r="1" />
    </symbol>
    <symbol viewBox="0 0 24 24" id="wrench">
        <path
            d="M14.7 6.3a1 1 0 0 0 0 1.4l1.6 1.6a1 1 0 0 0 1.4 0l3.106-3.105c.32-.322.863-.22.983.218a6 6 0 0 1-8.259 7.057l-7.91 7.91a1 1 0 0 1-2.999-3l7.91-7.91a6 6 0 0 1 7.057-8.259c.438.12.54.662.219.984z" />
    </symbol>
    <symbol viewBox="0 0 24 24" id="bolt">
        <path
            d="M21 16V8a2 2 0 0 0-1-1.73l-7-4a2 2 0 0 0-2 0l-7 4A2 2 0 0 0 3 8v8a2 2 0 0 0 1 1.73l7 4a2 2 0 0 0 2 0l7-4A2 2 0 0 0 21 16z" />
        <circle cx="12" cy="12" r="4" />
    </symbol>
    <symbol viewBox="0 0 24 24" id="language">
        <path d="m5 8 6 6" />
        <path d="m4 14 6-6 2-3" />
        <path d="M2 5h12" />
        <path d="M7 2h1" />
        <path d="m22 22-5-10-5 10" />
        <path d="M14 18h6" />
    </symbol>
    <symbol viewBox="0 0 24 24" id="moon">
        <path
            d="M20.985 12.486a9 9 0 1 1-9.473-9.472c.405-.022.617.46.402.803a6 6 0 0 0 8.268 8.268c.344-.215.825-.004.803.401" />
    </symbol>
    <symbol viewBox="0 0 24 24" id="sun">
        <circle cx="12" cy="12" r="4" />
        <path d="M12 2v2" />
        <path d="M12 20v2" />
        <path d="m4.93 4.93 1.41 1.41" />
        <path d="m17.66 17.66 1.41 1.41" />
        <path d="M2 12h2" />
        <path d="M20 12h2" />
        <path d="m6.34 17.66-1.41 1.41" />
        <path d="m19.07 4.93-1.41 1.41" />
    </symbol>
    <symbol viewBox="0 0 24 24" id="panel-left">
        <rect width="18" height="18" x="3" y="3" rx="2" />
        <path d="M9 3v18" />
    </symbol>
    <symbol viewBox="0 0 24 24" id="panel-right">
        <rect width="18" height="18" x="3" y="3" rx="2" />
        <path d="M15 3v18" />
    </symbol>
    <symbol viewBox="0 0 24 24" id="default-settings">
        <path d="M21 6H3" />
        <path d="M7 12H3" />
        <path d="M7 18H3" />
        <path d="M12 18a5 5 0 0 0 9-3 4.5 4.5 0 0 0-4.5-4.5c-1.33 0-2.54.54-3.41 1.41L11 14" />
        <path d="M11 10v4h4" />
    </symbol>

    <!-- 8. Auth -->
    <symbol viewBox="0 0 24 24" id="sign-in">
        <path stroke-linecap="round" stroke-linejoin="round"
            d="M15.75 9V5.25A2.25 2.25 0 0 0 13.5 3h-6a2.25 2.25 0 0 0-2.25 2.25v13.5A2.25 2.25 0 0 0 7.5 21h6a2.25 2.25 0 0 0 2.25-2.25V15M12 9l-3 3m0 0 3 3m-3-3h12.75" />
    </symbol>
    <symbol viewBox="0 0 24 24" id="sign-up">
        <rect width="8" height="4" x="8" y="2" rx="1" />
        <path d="M16 4h2a2 2 0 0 1 2 2v14a2 2 0 0 1-2 2h-5.5" />
        <path d="M4 13.5V6a2 2 0 0 1 2-2h2" />
        <path
            d="M13.378 15.626a1 1 0 1 0-3.004-3.004l-5.01 5.012a2 2 0 0 0-.506.854l-.837 2.87a.5.5 0 0 0 .62.62l2.87-.837a2 2 0 0 0 .854-.506z" />
    </symbol>
    <symbol viewBox="0 0 24 24" id="sign-out">
        <path stroke-linecap="round" stroke-linejoin="round"
            d="M8.25 9V5.25A2.25 2.25 0 0 1 10.5 3h6a2.25 2.25 0 0 1 2.25 2.25v13.5A2.25 2.25 0 0 1 16.5 21h-6a2.25 2.25 0 0 1-2.25-2.25V15m-3 0-3-3m0 0 3-3m-3 3H15" />
    </symbol>
    <symbol viewBox="0 0 24 24" id="user-circle">
        <circle cx="12" cy="12" r="10" />
        <circle cx="12" cy="10" r="3" />
        <path d="M7 20.662V19a2 2 0 0 1 2-2h6a2 2 0 0 1 2 2v1.662" />
    </symbol>
    <symbol viewBox="0 0 24 24" id="user-plus">
        <path d="M16 21v-2a4 4 0 0 0-4-4H6a4 4 0 0 0-4 4v2" />
        <circle cx="9" cy="7" r="4" />
        <line x1="19" x2="19" y1="8" y2="14" />
        <line x1="22" x2="16" y1="11" y2="11" />
    </symbol>

    <!-- 9. Utils -->
    <symbol viewBox="0 0 24 24" id="chevron-down">
        <path d="m6 9 6 6 6-6" />
    </symbol>
    <symbol viewBox="0 0 24 24" id="chevron-right">
        <path d="m9 18 6-6-6-6" />
    </symbol>
    <symbol viewBox="0 0 24 24" id="chevrons-right">
        <path d="m6 17 5-5-5-5" />
        <path d="m13 17 5-5-5-5" />
    </symbol>
    <symbol viewBox="0 0 24 24" id="chevron-right-circle">
        <circle cx="12" cy="12" r="10" />
        <path d="m10 8 4 4-4 4" />
    </symbol>
    <symbol viewBox="0 0 24 24" id="arrow-right-left">
        <path d="m16 3 4 4-4 4" />
        <path d="M20 7H4" />
        <path d="m8 21-4-4 4-4" />
        <path d="M4 17h16" />
    </symbol>
    <symbol viewBox="0 0 24 24" id="align-right">
        <path d="M21 12H9" />
        <path d="M21 18H7" />
        <path d="M21 6H3" />
    </symbol>
    <symbol viewBox="0 0 24 24" id="toggle-left">
        <circle cx="9" cy="12" r="3" />
        <rect width="20" height="14" x="2" y="5" rx="7" />
    </symbol>
    <symbol viewBox="0 0 24 24" id="toggle-right">
        <circle cx="15" cy="12" r="3" />
        <rect width="20" height="14" x="2" y="5" rx="7" />
    </symbol>
    <symbol viewBox="0 0 24 24" id="power">
        <path d="M12 2v10" />
        <path d="M18.4 6.6a9 9 0 1 1-12.77.04" />
    </symbol>
    <symbol viewBox="0 0 24 24" id="bell">
        <path d="M10.268 21a2 2 0 0 0 3.464 0" />
        <path
            d="M3.262 15.326A1 1 0 0 0 4 17h16a1 1 0 0 0 .74-1.673C19.41 13.956 18 12.499 18 8A6 6 0 0 0 6 8c0 4.499-1.411 5.956-2.738 7.326" />
    </symbol>
    <symbol viewBox="0 0 24 24" id="wrench-screwdriver">
        <path stroke-linecap="round" stroke-linejoin="round"
            d="M11.42 15.17 17.25 21A2.652 2.652 0 0 0 21 17.25l-5.877-5.877M11.42 15.17l2.496-3.03c.317-.384.74-.626 1.208-.766M11.42 15.17l-4.655 5.653a2.548 2.548 0 1 1-3.586-3.586l6.837-5.63m5.108-.233c.55-.164 1.163-.188 1.743-.14a4.5 4.5 0 0 0 4.486-6.336l-3.276 3.277a3.004 3.004 0 0 1-2.25-2.25l3.276-3.276a4.5 4.5 0 0 0-6.336 4.486c.091 1.076-.071 2.264-.904 2.95l-.102.085m-1.745 1.437L5.909 7.5H4.5L2.25 3.75l1.5-1.5L7.5 4.5v1.409l4.26 4.26m-1.745 1.437 1.745-1.437m6.615 8.206L15.75 15.75M4.867 19.125h.008v.008h-.008v-.008Z" />
    </symbol>
    <symbol viewBox="0 0 24 24" id="message-circle">
        <path
            d="M2.992 16.342a2 2 0 0 1 .094 1.167l-1.065 3.29a1 1 0 0 0 1.236 1.168l3.413-.998a2 2 0 0 1 1.099.092 10 10 0 1 0-4.777-4.719" />
    </symbol>
    <symbol viewBox="0 0 24 24" id="sliders-horizontal">
        <path d="M10 5H3" />
        <path d="M12 19H3" />
        <path d="M14 3v4" />
        <path d="M16 17v4" />
        <path d="M21 12h-9" />
        <path d="M21 19h-5" />
        <path d="M21 5h-7" />
        <path d="M8 10v4" />
        <path d="M8 12H3" />
    </symbol>
    <symbol viewBox="0 0 24 24" id="back-long">
        <path d="M6 8L2 12L6 16" />
        <path d="M2 12H22" />
    </symbol>
    <symbol viewBox="0 0 24 24" id="back-short">
        <path d="m12 19-7-7 7-7" />
        <path d="M19 12H5" />
    </symbol>

    <!-- 10. Footer -->
    <symbol viewBox="0 0 24 24" id="mail">
        <path d="m22 7-8.991 5.727a2 2 0 0 1-2.009 0L2 7" />
        <rect x="2" y="4" width="20" height="16" rx="2" />
    </symbol>
    <symbol viewBox="0 0 24 24" id="phone">
        <path
            d="M13.832 16.568a1 1 0 0 0 1.213-.303l.355-.465A2 2 0 0 1 17 15h3a2 2 0 0 1 2 2v3a2 2 0 0 1-2 2A18 18 0 0 1 2 4a2 2 0 0 1 2-2h3a2 2 0 0 1 2 2v3a2 2 0 0 1-.8 1.6l-.468.351a1 1 0 0 0-.292 1.233 14 14 0 0 0 6.392 6.384" />
    </symbol>
    <symbol viewBox="0 0 24 24" id="location">
        <path
            d="M20 10c0 4.993-5.539 10.193-7.399 11.799a1 1 0 0 1-1.202 0C9.539 20.193 4 14.993 4 10a8 8 0 0 1 16 0" />
        <circle cx="12" cy="10" r="3" />
    </symbol>

</svg>